name Walk6_EMG.mot
datacolumns 17
datarows 22
range 1.70700000 1.72800000
endheader
                time	            vasmed_r	            vaslat_r	            recfem_r	               gra_r	               sar_r	            tibant_r	           perlong_r	            addmag_r	           semimem_r	          bicfemlh_r	            gasmed_r	            gaslat_r	               sol_r	               tfl_r	              gmed_r	              gmax_r	
          1.70700000	          0.03869545	          0.07452535	          0.11162538	          0.57111567	          0.07942510	          0.06578996	          0.02632191	          0.24795495	          0.48275346	          0.22470596	          0.30648504	          0.09062378	          0.03333907	          0.21890344	          0.10740049	          0.15563832	
          1.70800000	          0.03882827	          0.07536488	          0.11165844	          0.58899052	          0.07496711	          0.06239257	          0.02634870	          0.25165678	          0.49525183	          0.22294990	          0.29792385	          0.08892593	          0.03329545	          0.22027003	          0.10649085	          0.15493089	
          1.70900000	          0.03895989	          0.07618232	          0.11166078	          0.60645963	          0.07073050	          0.05910751	          0.02635002	          0.25533064	          0.50765685	          0.22112752	          0.28932167	          0.08726144	          0.03324102	          0.22171288	          0.10560947	          0.15427060	
          1.71000000	          0.03909256	          0.07697209	          0.11163680	          0.62344312	          0.06671470	          0.05593981	          0.02632609	          0.25895904	          0.51992090	          0.21924097	          0.28069481	          0.08562898	          0.03317546	          0.22322088	          0.10475919	          0.15366056	
          1.71100000	          0.03922867	          0.07772958	          0.11158959	          0.63986223	          0.06291858	          0.05289413	          0.02627722	          0.26252257	          0.53199776	          0.21729303	          0.27205914	          0.08402728	          0.03309844	          0.22478142	          0.10394268	          0.15310413	
          1.71200000	          0.03937036	          0.07845097	          0.11152093	          0.65563928	          0.05934045	          0.04997451	          0.02620368	          0.26600020	          0.54384088	          0.21528756	          0.26343022	          0.08245542	          0.03300966	          0.22638083	          0.10316213	          0.15260454	
          1.71300000	          0.03951960	          0.07913313	          0.11143152	          0.67069793	          0.05597808	          0.04718418	          0.02610566	          0.26937003	          0.55540443	          0.21323022	          0.25482341	          0.08091318	          0.03290883	          0.22800528	          0.10241877	          0.15216436	
          1.71400000	          0.03967827	          0.07977327	          0.11132133	          0.68496401	          0.05282880	          0.04452546	          0.02598328	          0.27261010	          0.56664579	          0.21112914	          0.24625381	          0.07940131	          0.03279576	          0.22964204	          0.10171288	          0.15178542	
          1.71500000	          0.03984799	          0.08036860	          0.11118995	          0.69836659	          0.04988945	          0.04199974	          0.02583658	          0.27569918	          0.57752616	          0.20899624	          0.23773615	          0.07792186	          0.03267046	          0.23128089	          0.10104418	          0.15146865	
          1.71600000	          0.04003005	          0.08091621	          0.11103692	          0.71083916	          0.04715646	          0.03960760	          0.02566563	          0.27861732	          0.58801010	          0.20684870	          0.22928462	          0.07647865	          0.03253319	          0.23291527	          0.10041256	          0.15121374	
          1.71700000	          0.04022517	          0.08141308	          0.11086172	          0.72232072	          0.04462586	          0.03734890	          0.02547055	          0.28134627	          0.59806571	          0.20470839	          0.22091273	          0.07507688	          0.03238430	          0.23454134	          0.09981852	          0.15101961	
          1.71800000	          0.04043340	          0.08185609	          0.11066365	          0.73275640	          0.04229330	          0.03522286	          0.02525154	          0.28386955	          0.60766505	          0.20259973	          0.21263321	          0.07372179	          0.03222414	          0.23615560	          0.09926292	          0.15088527	
          1.71900000	          0.04065404	          0.08224211	          0.11044208	          0.74209781	          0.04015411	          0.03322838	          0.02500880	          0.28617219	          0.61678445	          0.20054803	          0.20445790	          0.07241772	          0.03205297	          0.23775347	          0.09874643	          0.15081045	
          1.72000000	          0.04088572	          0.08256794	          0.11019757	          0.75030451	          0.03820338	          0.03136480	          0.02474257	          0.28824063	          0.62540287	          0.19857937	          0.19639779	          0.07116794	          0.03187105	          0.23932969	          0.09826957	          0.15079603	
          1.72100000	          0.04112664	          0.08283046	          0.10993343	          0.75734683	          0.03643599	          0.02963351	          0.02445317	          0.29006331	          0.63349980	          0.19672216	          0.18846309	          0.06997490	          0.03167864	          0.24087948	          0.09783281	          0.15084360	
          1.72200000	          0.04137486	          0.08302708	          0.10965586	          0.76320853	          0.03484673	          0.02803891	          0.02414142	          0.29163219	          0.64105853	          0.19500796	          0.18066331	          0.06884067	          0.03147598	          0.24239825	          0.09743595	          0.15095446	
          1.72300000	          0.04162869	          0.08315647	          0.10937218	          0.76788730	          0.03343025	          0.02658749	          0.02380921	          0.29294348	          0.64807241	          0.19346939	          0.17300727	          0.06776799	          0.03126323	          0.24388013	          0.09707777	          0.15112919	
          1.72400000	          0.04188715	          0.08321857	          0.10908885	          0.77139427	          0.03218107	          0.02528638	          0.02345979	          0.29399706	          0.65454536	          0.19213679	          0.16550303	          0.06676097	          0.03104049	          0.24531717	          0.09675602	          0.15136784	
          1.72500000	          0.04215140	          0.08321390	          0.10881074	          0.77375836	          0.03109352	          0.02414311	          0.02309724	          0.29479625	          0.66048606	          0.19103635	          0.15815789	          0.06582470	          0.03080787	          0.24670018	          0.09646766	          0.15167051	
          1.72600000	          0.04242620	          0.08314308	          0.10854097	          0.77503628	          0.03016170	          0.02316661	          0.02272567	          0.29534847	          0.66590313	          0.19019000	          0.15097852	          0.06496455	          0.03056547	          0.24802002	          0.09620890	          0.15203885	
          1.72700000	          0.04271981	          0.08300712	          0.10828105	          0.77531784	          0.02937952	          0.02236963	          0.02234879	          0.29566490	          0.67080397	          0.18961617	          0.14397104	          0.06418564	          0.03031353	          0.24926811	          0.09597549	          0.15247777	
          1.72800000	          0.04304376	          0.08280784	          0.10803135	          0.77471744	          0.02874064	          0.02177099	          0.02196986	          0.29575846	          0.67519470	          0.18933039	          0.13714119	          0.06349241	          0.03005235	          0.25043589	          0.09576317	          0.15299523	
